<mxfile host="app.diagrams.net" agent="Mozilla/5.0 (Windows NT 10.0; Win64; x64) AppleWebKit/537.36 (KHTML, like Gecko) Chrome/135.0.0.0 Safari/537.36" version="26.2.14">
  <diagram name="Halaman-1" id="aU_xdiGgSo6Epe1AttQ7">
    <mxGraphModel dx="2242" dy="1014" grid="0" gridSize="10" guides="1" tooltips="1" connect="1" arrows="1" fold="1" page="0" pageScale="1" pageWidth="827" pageHeight="1169" math="0" shadow="0">
      <root>
        <mxCell id="0" />
        <mxCell id="1" parent="0" />
        <mxCell id="q5asn6ToluuEKilPD6a5-1" value="Architecture Multiprocessor" style="text;html=1;align=center;verticalAlign=middle;whiteSpace=wrap;rounded=0;labelBackgroundColor=none;fillColor=#0050ef;strokeColor=none;fontColor=#ffffff;" vertex="1" parent="1">
          <mxGeometry x="-1068" y="-103" width="197" height="30" as="geometry" />
        </mxCell>
        <mxCell id="q5asn6ToluuEKilPD6a5-10" value="" style="edgeStyle=none;curved=1;rounded=0;orthogonalLoop=1;jettySize=auto;html=1;fontSize=12;startSize=8;endSize=8;" edge="1" parent="1" source="q5asn6ToluuEKilPD6a5-14">
          <mxGeometry relative="1" as="geometry">
            <mxPoint x="-1111" y="-15" as="targetPoint" />
          </mxGeometry>
        </mxCell>
        <mxCell id="q5asn6ToluuEKilPD6a5-12" value="" style="edgeStyle=none;curved=1;rounded=0;orthogonalLoop=1;jettySize=auto;html=1;fontSize=12;startSize=8;endSize=8;" edge="1" parent="1" source="q5asn6ToluuEKilPD6a5-19">
          <mxGeometry relative="1" as="geometry">
            <mxPoint x="-828" y="-15" as="targetPoint" />
          </mxGeometry>
        </mxCell>
        <mxCell id="q5asn6ToluuEKilPD6a5-4" value="" style="image;html=1;image=img/lib/clip_art/computers/Monitor_128x128.png" vertex="1" parent="1">
          <mxGeometry x="-1003" y="-45" width="62" height="60" as="geometry" />
        </mxCell>
        <mxCell id="q5asn6ToluuEKilPD6a5-15" value="" style="edgeStyle=none;curved=1;rounded=0;orthogonalLoop=1;jettySize=auto;html=1;fontSize=12;startSize=8;endSize=8;" edge="1" parent="1" source="q5asn6ToluuEKilPD6a5-4" target="q5asn6ToluuEKilPD6a5-14">
          <mxGeometry relative="1" as="geometry">
            <mxPoint x="-1003" y="-15" as="sourcePoint" />
            <mxPoint x="-1111" y="-15" as="targetPoint" />
          </mxGeometry>
        </mxCell>
        <mxCell id="q5asn6ToluuEKilPD6a5-14" value="" style="shape=image;imageAspect=0;aspect=fixed;verticalLabelPosition=bottom;verticalAlign=top;image=data:image/webp,UklGRiwaAABXRUJQVlA4ICAaAACwMwGdASoABdACPp1OpE2lpCOiINEIiLATiWdu+C1Zq3zC+Py4BsfCusZh/+nWmwT/eYpKiflTEiGH57yMb7UapdnWf3/Y+vfzBud/5iP2S9Wz0if7n0//Sm9az0ALK9+yf5r0m9MNr9wFz6FC3ZHwAvXe9ggA7qecAsxUAPKT/1vMt9dA6LQ26I+siY4f1dtP6u2pdPCG3RH1kTIs0MH1kVYH1kTHD+rtp/V20/q7af1sQSUCWMgmCGtti/ro5IYQNjqyOifAMK9sHEIIjRXpEDImAuqAZEvBjl00ZAutZExw/q7af1dtzQgEO+Exw4pNPkg4Q26I+thun0I5q9gUbDKHfSICXdx3yowi8SDJQoMGaTfmQqQHlOB98wf8Ad6e8ZW6/9LVd9qHtRLUVbMFDS9sJyuoScmQANTHIpXcWAHhMlGL1iksTdUvlWoGVzHD+rtp/V7txwMxHLMRw/qpTD+2NI8IbdEfZ+Qwn3Ec0CXOsYiKvy+/9ayYm/1mF9ErCNghkpEAA00ofcxFApmH4w4lI3HClAYhAFINXGjcy9oSUAazcn+l9l/C1dtP6u2oCfYKweomnyQZZiOH9XPReht0SBsbgA79jj2fCQwfWRMcP6u2n9XbUdEXdE0+RTmz+L+2n8+BRyQwfWRMc0OGKYTHD+rtp/V20/q7b1ljrV20/q7af1ds6BrImOH9XbT+rtue9pAysiY4f1dtP6u2n+CyG3RH1kQ/8j+58X7Y0jwhtn8X9tP6zeT7isD6yJjh/V20/q7Z2Slau2n9VSEj+6Jjh/V20/q7af1dtP6vQbmva9ZExw/q7af1dt0OGHyQcIbdEfWRMcP6u2n9XbT+rtqAoJc1ZIOENuiPrImOH9ZvH1kTHD+rtp/PiL+2n9XbT+rtp/WxBJDLc17XrImOH9XbT+tj/z4Gk0+SDhClHh8j+6Jjh/V20/q7af3L4P4S/tp/V20/q7agVsIbdEfWRMcP6u2n9XjfExw/q7af1e7nCShiJ/V20/q7af1dtR0RMcOKTT5FNlHh5F/edDE3bT+rtp/V20/rOd0n9XbT+rtp/PiL+2n9XbT+rtp+K+YQ3RMb7IcIbdEfWRMcQFSIOENuiPrImOIm+C+dk5UJxwHhWWZcIwMAw0jSAw0gMNI0jSPM3EtS1LUtS1LUtS03EtS1LTcS03EtS03DcS03DbFl79yZ+k1ocEQfGKYTHD+rtp/V3Ppu2n9U7SvCMtIFg7eGxJjzzQwfWRMcP6u2n873WpkWe89QzcbT+rtp/V3ADlgetpTeQbJ23ndGD6yJjh/V20/q7af1dtN1JgbGN0SAJB70NuiPrImOIkwXCY4fzunp3rxsk5miQCc5znLhSGT59mmK6hKNz4UgVs5znOXDTqkl82GLr8cVmCz2HYdhFvkcRAmPrO9E5l6Cte17Wrvj9rNAMY1xYQ4IkvunyQcIbdEfcGTmMH1kQygdnLPwloq52cHx8wzbTwQJpUL67QdeYb6ESDcxXQXUg8Psx4rfsMEPUxf0R9ZasreMPkg4Q26L/VKeTvJG2v0pxipwVwQ71Vrae1oZfmpwhVy695pJE948xJoiqGs0nNeaH7yM+5f/VpUQ+lo06G3RH2fuMhw/q7af1dxexHLGCLC5FaisqkJF6i9ryBD5mWvOICvnb/oJnhODgyHxaCR/FjCryTDnpTyNMRQCUvP/gHU2U/q7qd3CfRH1kTHEBQDg8JzdNvOHCjUgkEgP+gmNbUCYAyXzDCC2jqNmmBUieJc8x4kaDAFcjv7nozCK8EiGxydnh+pZ1QlG4ETGYEShPhdmP6vPPs/bzZp8kHCIu+a9gvNn8WKZxNbEFnpK/AeR8E75hHyS+6Fa0EjmCXMB+32X1zhNIMwgVGk9c1rQQi/8gx/PC6y71fpTOJSFmbdou/sC5vjWnl2WMOvRzecnMCPB4jSM+CPa6KwmHQOjagWO0BUrjaf1dtP7nE7ftNvxXYu7mpwm1/1uEgdAoWQ45W8Hggc9Vj327X1kTIGg3qhg+siY4jtneMTtJ2Pzert2vrImOH9XbT+rtp/V20/nKRthwmOH9zCT9lZExw/q8/C6EXstPnCbXd1gsmZ2YD+bpan6E1owjryGva9r2va9r2va9r2va9r2va9r2va9r2va9r2va9r2va9r2va9r2qOA6sK+IT7FBA5EfWRViCr29XbT+ruMNzv7ZtxXm8WHBZHJLEWQAjnZRDFAZ2Wit5JbRYRuuSlOlJZaWN5rHHhEAYrPwWQ/sHinLcqCWcBsCboj6yXK3aysiY4f1egCrske7JNZFjVNGcGkVSc6LZjfIem9u8BkLcdIrzES+DOlPByl7d4jSNAyFDczDuxuImytrc5znOc5znOc5znOc5znOc5znOcw4m979jUBcvNPkg+Xv4Fbtp/V21AVK4ftz9qkJG/woFCrTb9v7DsHDKLQKlGTTMXjTTZDJhZph2HYOGUWgS7Q7EfucHR1bajEaGAvnms1giCua5rmt2x4mnzNZ/mlQ2r8+CCTt6qzafcqyG3RLC7ajv8hg+siY5N6TcbT+eaR4Q26L/Tikg4Q26I+z8hu5y6eENui/05+qGD6yJjiBWvmWvWRMb7IcIcDNt8kHCcUkHCG3RH1kZJIOMY5XXw+SDhDboj6YL/V/Ih/5IOEONe2SFY/wWQ26I+siY4f1dtP7okTathDboj6yJps9v1dtOKTFdHrallZExw/q7af1dtP6u2n9XbZlYCY4f1dtP6u2o6ImOH9XbT+qvKte4NsZLImOH9XbT+rtp/cvg/jKoiY4f1dtQK2JwS/q7S0g4Q2z+L+2n9ZvIAiSDhDboj6yJjkyN0R9ZExw/q93GBeMKx/VUhJBwht0X+ht1Zeht0R9ZExw/q7ajolyI+siY4f1dtmSCLcp/V20/q7afivQ26svQ26I+siY4f1dtP6zePrImOH9Xbc1e05Zeht0R9ZExw/q7n9In9XbT+rtp/V20/reomnyQcIbdEfWRVgfWS5EetpT+rtp/V20/q7af1dtP6u2n9Zvf6G3RH1kTHD+r3bcC+xoNq5+3bT+rtp/V20/q7af1dtP6vPPrJ70NuiPrImOH9XbUdE96G3RH1kTHD+rtp/V20/q7af1dtR6GzT5IOENuiPrImOJdX+F5JDB9ZExw/q7af1dtP6u2n9XbT+s3j7g2afJBwht0R9ZExw/q7nmhg+lpNPkg4Q26I+siY4f1dtQFBIxf20/q7af1dtP6vdtuiQBEkHCGuN/V20/q7af1dtP6u2pxgFWLb+2n9XbNgAP72l7w9EtBBIaVzoLcMUKuX5WoyCq+G+9EflyIjTRA/BJ3zNNA03GzhmO2LLp5ZtAAazqIG3RTai80OtznDaiNd5Mj3NoAADT1viOeIs5uF2lpQxuxs5SMT+sUaGTim/dDDlH1fKnY+JgO7cfFdWFfMSnaPTrjLyUqo/7Z5OvrT8qOMSzYZW/n77MC5+TrVo9LbTe49KU/d80OOMfMPLWc579u/QZ3WdpIDj8kRDoBSt72r2O4aTNymCNY9dZvwLz6hFlvhHJbq/cu/El+S0QNuim1F5odbebZZp/FufgpDu+1ESvcJ21Bpb38kXa7zlXb/KIOVAfKe62q1Nx6qeY+Kvg7FXk3xmWAQ/VKmjg3luRjK9t2RoX5c1vC1867p+wAMsYM8oDCNnoYroyTc1fbpobt8gxqNUaOif/fU+ssBcmHq1G0Vs2xebZD4/++3Va78ZZ8shUbn2U/bVWxP+3snd7QaxuoL8LhdpHYmKeeMaX+Gd/nUI2JuSqFInjCOHKVtUVfg/e7pz9Uy5DeyBh3ujxSZS8RsP/wA6kIxVw99/ompAO3ZzWMyUrVtbm3Qf/nFNlx0qhp9U67HUYTU21Oi0hsBBFNdrrM6Gia+4Sasr/poqm5IFHtew26Vt3dzpN8u19LPwFouIHVF+jICPyfY+qEeSSlri8veZb8mKMcyCNgK+LzsHvm1KZbCc/7ghrqcZYL+g9hxR2xcgEwOsJx653qMrS668FcD6f+tDfBQdH5id6CfRzd8mn/0Tv+RtdLvuqiZuzdfjIRYlxb5Xx9DedW+3IYYNw7VZ2Fbaw1AzmBgF/33WD/hcOp7tSSoRlwuycVft1xcPEmcAjKky7LP3xU6Mvlq04J1SI6CzPi3g/jpy92/clzxx/2aq8xqEao9tAD4lWKtOP7hFjTTPfhQhHHM4B35lpE2MPhd7J6IrK9PjzGRRDaso9LkGYYc5GjTcq3PdksO4ZHcj+6C7zt4cvqc+KE4q7Zh/srTnw0X7xFPFifWVQwFn9dhdwnD6Ip2QsKVjhsfNlsyaQ4GrCAUecwi4BdTYx7cANbt7ynTGeY002LN89mYK0/UEusIAr/Mrbztn68/NhAT6VEFcAwH0OTH6I0/XvZT7LVMkEaAFgJ1fnIX9EczsqjcM3rzE29oEObGeCxxpwbOauEZnGMtU/hlkK8O4zn9RATKTbAn+ACK4wYvVjAbndLHZSTAAAjs0aHgVEuiqfMIw3EGH3kPgHDPWDRMaESmn5OyX/IPJsPurVv4qq8stfMy536JePXeuodvQ06/UGLnbSllAHw3yuWGBojH0ZD3HTb0v2tXSP2ViRXBV4JI9Gljgy4sEfN/yKpXjGbh2OfKVEN2obcF7VPqFWm5NaP2djBark2zdniyi7pjS423ZUO8D2/5D8rdtars2gT0yGV5548rTahk3Qv19Tu2qd1H/N8A8ziYpGiYsmBRW0FRGRRofpicLnFCjYpWqM0ggkiixEOt8qViXgDNxo6ms8dvz0vdTlvlKDnj/OSmxf1dYObUTTz6hikxMyJ9EHl7M9tSv4AwyPs8P59F1uzhtHW7s9o+AErrcWxexO/IqVw+6KMmfU4vT6PnvgnBfsrE8yJ4pnv6s4ovdDOClDDtV6s9UP/wWS/p+h4HntTsTXnIBj7j/f6fpiUlHYEbUNn413bT7SBXj+VUN3iImtI8nR7k0RPCHYrKHPk/1s49LSP7wJ9+ru2bW8vd6JfDGdEz2k5dwXpIBex1HE5f/pv/K3P4Ect8fcwoaRRqDOhmaSAJBPXyxndFQqEBe1EwRO/XPeF09DuN5m2kFfm7/fiIJLlkgkcvggBPyB5x6VQpNCwPuYQkvQtv+8S6Ifnr7ZzftoTwp1cHwQAAmv7J3w79MbviF0r6AFh4TYdQU1hMuGdgAAM1I1jk0dID7/wlCMQFniJpNsXBysrqPpzd0HSxEAButmJuQp7Y7ncnVTHbWs3eq/l1jNaoQTuS4gAE6kbQ91bK0J2Qxg9KABX89uFap2O/U0SIABUR4BC9apgzSn3plxpY5fWf2QbTu5Qonq1lCIAEbVKwdHS6NgnOHoB0J9IVOGDOzyIisHY57XpbwH0slIAEAmR/zhtI6ZYpOieuZsySj/slpjhYd1To/iz+4FNZgQAD2BEl2vFJwJErbtao1qwCUZwvFPfY+cGAd0A4wYAZMiVMo5PTOjYgGgfbDBr4TPV9EJOIdyd72tn6SAFwnavenFa+KElGCLt+nv5m6A/N96tLnqakS16iuw5fhZXRNVkqPiME8nr8McCnJp1+iJfwOcltGpQKxQOlVrRohP4wy0siUC5kvrjIPynMLs9Tx3igIDY0l6l4GOdVmqXR0M96icN+UBbFEzwkn7HXu/9Z8sbc2YtSrTOYPxyAk043RZvyCAjPgg06sl+ufwd3WLPfTpuZnC+rB1/AxtFtpcjE7KT6IbEr3WOr/JjE7RREAAAAkxchieFfRcMzNE/VyyawRABMNNaMROgZ9jzLfcX1GmTL0CAAAF1EHUmIK7ZnZUuo9wiBn4qguy1TRazmoXSfjcPhU0tVEGjRacDCGf9nqZ4RFfu//EHb2nnpZXDVVjhpd+V0+Ttnpr5i+/hLHd0p8+wXn9LM5TuBDPrk4SrkRb55dH50UXOVAF9RPfy2sehWZ50U5nYVWTu6fwIK0T1uraQgmD4sJmK/ntAL4Cz0bGcP5gLws35UVZSRpSfxO828los1t+qDvOCQYDfxHBVb7IsgPWW6IE5aE7OeQDDABl12uM5yiJQhLJTdULaStVV2LUjyNDHcK5paYDDdfVxdM/VBUTnzW3IHHmlKkAV3DYtD6Fpdy6fWCcrOx+kPkwhP8W8Ci5APYRe+dhdBDsTlh7dqdmScq52YFEDZctjJUSr2gueNaC+H6TlBqaZtvsSI0o3ayE9HzUAjBX5TQbDtnZywNsd7M6vSPGB+fmZk847AZ7+RKXT2ruXQs9bfjclitqBYlMbqpmFAMQVB2HryqyLrWdTxUTNtaMcfANzqPE+HZQ15jH5rOfrj85cXGeyyuwQwBxDHYZ+XroIwkD533IP4hocxc0bY2ZHjGNuigDYudAFtCePAv4XkGECV8jpcEHD+FoMbJgTrb56uDVgJiMZO9VbHngO4RrYO2/XCrILKyDpMtcD4bwVbdyCk/lbXuBqVvJJVDWDUCRNigMErXDysqhmlGIQTtmGAcD4xX+7o7jopQh5Qob6M6CpshUDr9leRdbBEAi4P6tFSgPDjMlDVH4vDSnNPw2w6VWoiX6HDxKRgNuc2g8lD+eTyjZkl9OyXw0HhaNaNaNcBuTPTgMiCBmRlA6YvdxMGYPQAq3pz9wWwIjeVmGvcRUOKhzFjCAfZAae5Z4I0SQGn3t1rrkhb9MsGmfdh9Yol5DwcPHuJqRn303QIAAD2lxVoRQZDDKjZ98ex2M41O6TG+G3PbfGWXbtt4y/wUX/jp5gQOYblQdPnpnAT8JflTWXnJ3QW7VMSKeDHUH9rwm0n38eTlk6ylMCwx4BTR2GMHOxtJQTi8rb6Ul4jr/3GaxQx1KSwU89MBpJldY8aIFRqPRvh0Ggsat2fuW6GYMABSWTT2yxUG6qeRiO/2gevtC4WQj65O6HZaV9YVRqb1x9Keffj+eold5krhCB9zel6vqv1weTTdg/AKIgrRbuwqgK2Ak7aphu7Fk0HFj8RBB8Gi0UnYJWl4Aas+i5xOVWRsrx1Lb+Fl6CYHvFUl1nOfwdSZx+BV1o+YdxdL31JDcAl074uGWBTio3QG3GAHGRsIOtRyDGlOcBDAusNchrZ6HFQcZxunOqf/Bl5id5qKJktyvhCG5aPhB0f0aenlFbpeFcdqKfpB31cOq4U1TaufhX2nL41cOjZghHpVHy1ZqmIuCOKCnBl/dDnzRsbmflAOcJXpvyBq9B2UzOFo028NB+AYsZaUd0fWnpEAFxxBS1eNWUNC7M8aYwpsKRq9ETsK83opIAnc4MpfkdnG6neMmKHEAArwi7xC09xBzQplxEYTaMOFxQwAAAASHzhcPc43VhGCEZHwEAABS5W8VKgUryjQ6+xJ9UqVd82w7YdG+LB+2DZ4QZ4ahE1o/l+1fna9xkfnrIEAVEqC3iDrCO+alou8azGx6aXx95LbfIkVkXBfJ1db+BZEisi4L5OrrfwLIlL4+8ltvkSKyLgvk6ut/AsiRWRbDKN0bvsfXdKP4lYYKSlp7PARb0nz5RNH46ia0JaZcS34gc9hMCeBgdL5vXv5tgbe8na3bVx7x2+/GSGMiwAC2mi/euC4fAO53GuRR/fZhGhB0gPDWZy5lITQjaIDUOoNdP02Ds6pIrlYpt+rFIHPK60FiVVkJbzw7DWK5kduivQSqyMXN2+6fXN0HZZ3vB0mCLoJAbM1abl54b6ZcK5kFnoMOFN6NHR/eLj0zZgikvZTRd/THvAzTwWpLV2SkRdPXc8NngUJEltEY8HMD41BOhAIGC4GFA8MnCoERDwyt9DhxayOa06Uck5VIHU8ZyQNVEAHPcLika5pSYZsxpUJW0ThK9iyMvXImu3KLM86kSe4TB2o/dbw5/DkybocUavPcBHsyuAhETX6KdWQ3rK12hA5Bc8P/oPNQbzYGiGiHfSY4Fzx1sNd46fhvE5xFzub8of59naFsoUdDhgRli4DrWMrynzj4YVrd8ODWAIwBGAIwEABmI9uNgnZK288yyXChhtyYXU/vPMnxDfyskyah49IAHPvVEUQwuI2OEXJmVlA7BfaA3mvMnTcYMiZN3U5Uhj9yIeSKLJ9v8ykU8ZC8NcfF3r9OyEO+auywXHMfoYyt9G4l0O2+9IQeIUIP+B8h4JzTAmoSn0JvmSeFBFcTL/Qs3ssFAxIlQXfNJ4ZoEP+ny1zZSnD8DNAuBmLDMMBbgFnLMy9twQAraOG91F2+C+85lBZ6aES34Avw5gMWBb3D8dtWBNFhVBp0/3QktgQISNS5hn/sq/G06Tp3ZsiYdRpuiF+UGfAgwg4p9E5/c2zOuVNwa6cdQBJ1TFPJktDB30kU/SShussOH51Q0x5XQQ+yInc2RDXJgIs/oxswHOWK3TY2P5gWzopb/8bK0BEBpUIhq4AkbNFouPyIDbfrk8s8jMokqHJTM+DAbIITeyHMViwWj3TyeVbQ3S1fSmPJoJn8CP4ghAE138xWybfjkxP3WQ1q3aXO8K/J4u2nmkqxk/zjjZjydG9OQzvzgDtu+7swZmdtr5i30wn0yvw9WyOe3oIvJnoK/oZWFWNhWxptBwCogi94mB1arkkUSJ2TaFWwnq09QZyBCEKckEk3q1y0ACZW641ftqeVkTOff2KRZqzuKqYmOyP6FI09DpOVshwdeoq1Ay/Sv4oYCAA2J35BwCPfKXs4AbewmisQTf/XsEgi6S+L4AD1v0VAZAAFQm1Egnuj4oFWPk/LPpN15mU/Aq12GhAAIExyOGxoOIUQDzR7dgTUyBQDkyfW9yM2OPbaAAGE4rBVgop6yzW/IwDX2LJ61yxuFNEaY0QAFj8RfPU27bEHmUAAOpdMgpQzsrFXdrvy4AXwwEkLIASrzJxjnALbMAAGsDyd6sJYEH7mF5yYcfOJ8IK7TVTvGd8hp+iCbX5j3QAAAA;clipPath=inset(30.47% 22% 28.11% 22.33%);" vertex="1" parent="1">
          <mxGeometry x="-1156.27" y="-33.5" width="88.27" height="37" as="geometry" />
        </mxCell>
        <mxCell id="q5asn6ToluuEKilPD6a5-17" value="Main Memory" style="text;html=1;align=center;verticalAlign=middle;whiteSpace=wrap;rounded=0;" vertex="1" parent="1">
          <mxGeometry x="-1161.63" y="7" width="99" height="12" as="geometry" />
        </mxCell>
        <mxCell id="q5asn6ToluuEKilPD6a5-18" value="System Controller" style="text;html=1;align=center;verticalAlign=middle;whiteSpace=wrap;rounded=0;" vertex="1" parent="1">
          <mxGeometry x="-1023" y="19" width="107" height="16" as="geometry" />
        </mxCell>
        <mxCell id="q5asn6ToluuEKilPD6a5-20" value="" style="edgeStyle=none;curved=1;rounded=0;orthogonalLoop=1;jettySize=auto;html=1;fontSize=12;startSize=8;endSize=8;" edge="1" parent="1" source="q5asn6ToluuEKilPD6a5-4" target="q5asn6ToluuEKilPD6a5-19">
          <mxGeometry relative="1" as="geometry">
            <mxPoint x="-941" y="-15" as="sourcePoint" />
            <mxPoint x="-828" y="-15" as="targetPoint" />
          </mxGeometry>
        </mxCell>
        <mxCell id="q5asn6ToluuEKilPD6a5-19" value="" style="shape=image;imageAspect=0;aspect=fixed;verticalLabelPosition=bottom;verticalAlign=top;image=data:image/png,iVBORw0KGgoAAAANSUhEUgAAAD8AAAA9CAYAAAAal7HUAAAAAXNSR0IArs4c6QAAAARnQU1BAACxjwv8YQUAAAAJcEhZcwAADsMAAA7DAcdvqGQAABRASURBVGhD7ZvZs11Flt5/KzP3PvOdr5Cu5lkqBAgh5qkE1GQq2uUuVznafvT/4Ve7+8HhCLsj6qHDfmgPFY0jbGpwFW3oAqoAIZAQIJCEEFASQrqS7nzPtHdmLj/sfTXBFUhA+4H6FFv3nHP3yZ1frpVrrfwyr/z8DxeUm0BAAEWISPmZqkVxWA0IkZ5TlEA1QDVAROg5wUZPOxWsOkbaQnAJF2qQRGWwH+glixArQAoSEAISBYkp0UQwN9XlT8Fc+8EXhdVQ9sESxBHEoqKI9BE8AhgVrBrAEDEEI0QBC1gFBXILQSKJehL1GI1IbCBaQ9QhaogSyV2gl+aEr4g4X4a8EBAU1CDRYiK4kFHJF3GxA3hcjDgVjBqCGLyAFg6DiyAKfQfBeCohI/VdoIMJARtyXMixoY/xfVQzVCJfHXWQm3V7JEfVQrQ4BM3azJw/TXv2LFKt0Fq5gVZjCINDxaIIwUIQpZ4HciP0rQGESvQkvsvF6U+4MHWWED0SLaIWiIgxDA2vYGhsLdbVwAgigmrRdZGliXdjuGnywURMVFxUyHt89OEx9r/2PNML55BqhY2bbuPuW+9mbHAl0VYJxhFtafWQgwiZKaZC1ffwU+f41QtPc2zmJJYuGh2ow0ZDLTpWD23ggTv2Mb5pC7GaXkX4ZsnftNujDotgY5uz54/z96/+kiOdk7R3DDI1Fjn07kscOvwH5mbOE2NGRCEKNgiZLUKljQARGwOTpz/g0HuvE9c1sbvXI3vWI3vXke5ZjW5o8v7kCd57700W52cJIaCqiBQecLO4afIuWCT3LMyf54X9v+HD7h8ZeXgr1W9vZ+iBHTTGaxw59gbHjr9FZ3GBqAEjBqsGbwUQLIJRMBpZmJ+ha3qM3L6R2j33Ur33bqr376Z+306auzeQjxrOLXzM7MI0eZ6jqpfc/maxLHkvkdyEIqnFgGiZ0oJigxDsArE7xWsvv8hbZ05Q2bsVuW0j7UYdv3KM9L6d6EDK0Tde4eOTb9LJZsjwhCiIgomR3ESEiLcQNFDxhsVGQicJ9JOAN5FORfCVlJqvEPuWbj/He3+pn19mAJYlD4qU7aqAR/EGvIFgFJfPcfDwS7x4/DWqu9bT2r2NfjUlDQ6DI64Zp3XXZibTDgfefJmLp04Se4vkLmDEYsr0JwjBFNMgDYbMCUnMcOS4GIgGNE2oNwdxrSG8tV+J1bke+SQYUm9BLcEYgjV4iUTjiTZw5sjb/N+DzzO7vs7g/TsJrQomKLUgVCOY1OJvXUm4byMfdM/z7mv76Zz7mCzMQ4yYaBCK9iNF1AfFquKiYKKgApko2qqw/s5vMXbrZmyjijGXu/21zHlb5ueIISIISprnNNRz/o8nePr5p5kayJh47E7y8QZGhEqAKOCN4E1ksWmp37ae5s41vH/6Pd49+ApxdhKyHIKgUUBNcZV1oqBI+a94X9QDPssgeNI0xTl31QDcLJZtQRGCCN4UnajlgWbWJ5+e5LlfPcXRZJa1j+8lXTmIBKWWCakKfae004iHovCppUzs2QYbh3j9+AFOv3OQ0F4AzTEigEUvdSMCEIxBMRgV0gjMtzl9+AhTR09i+vmXsvaVWJZ8BIKASsRqpBoDZIv89rmnOT51nJFHd1PfshpvhAqORIsI7g1kRkGgEgr37Q1WGH5wJ/3VVZ7f/ywffXiM0O8g5ET1IHpphaACUQQVQVRwAdIsYhf72LkusdPHe//1znlEQcKSD+C1zz+8/jzPfvAqrYc3MnbHDtrFLCVDaFtDbiCJkbov6oCIo28NC1WLrh1hxf07OdvKefGVZ5meOo33HVgqWeWyi4sKRpccHwLldJJAFvJLef7LYlnyhR1BiEBkcvo8z73xB9JtYww9uA2Mw5oUH4Wuc3RSITNCLYd6H0QNmTF0E6HrhF4i1DeuZPz+nXwydYq3jxxisT1HjDlI4e6UhJO4RL5YCOVW6SVKLy288avCsuRNFGw0FB4cmZ49T4yBdevWE4OAtsFP0dQ2dd/DhYRAhW5i6VSEKJGBrMNYu02z20M1kEtg9aoxGk3LubOnyeZ7SC9gQ8RoQCXBU8HbQDCxDH0Wqw4XDS4oNkaWVrVGi3KZ8seN+sKy5KMowUSiFI6/amQVo7ToH5mkeaLN8NE5Bo/OUjt+kfrZRQZyxWlRtAhKqkp10ZOemqd6Yob6sVnqR2fxh84SO0qrOUovi4Qln4ebpHDzWJa8GiWKFuTFMjywggdvfwj3x4wzv36LM08d5JOnXuXEz/+Bj184RDOPOA3FKkwDNg/0PjzHR79+mVNP/Z6Pn3qVj/73IWZfOsX44Ho2bNiBc3XAlXQL4st26GvA8s/SiKgiKnixZEmVvQ88zpM/+Cn3b3+QPZv2ctemPYxIg3x2EVAisQyQkACuk9OYj2xvrmPP2ju4ffNe7tqzj3vu+TZDIxPUG0MgtljjC/+oVud65AXFEXFa2KPnHN1ajTW33saehx/jtocf4/Z7HySttwgOMhvJLEWTWqQsg8HhmFi5hp2797L9vgdZs/cexifWMjg0Rlqt4RKHyJK7fxb5y1F/6d2XXc0tYVnyWlrCRsXFIu/nqSPUatiBQapjt9AYGSOpVfFSylHGgNpSeoJoIIgQnMU06lRGR6muGGdgdITGQIO0lmKcLCWzgvxn8f+asCx5b8BLEVFdBBfARMWIIUkS6kmDlqtRiYIL5SJIBVFX6npFsRJMUbA6Sai5Ks20RqWSklQcxiqYiEoEKcqcL2/PL45lyYOgYtCyQxZIFBxCgsGKYg0koRggFUgDWC0CZVGpgY2FamsUElVSlEjRbi0EMufpOah4QbTQ+UwE0UiUIq1JEDIDaECCEjWQGU9mi1WfqMEGgw3Xcrg+liVv1WLVosYQTXGnMQYjBhWLt548UUy5NvEGKjFitcjRlKEviYZoDYgUZayJxcBoRro4R787Q7u3gGsHoJguNha1RTSx8LpoyQyE0Ed6HXxngZAtoHQR9RgtRJIb9ZplyX+dcNkM7xx/med+/wsOPPMLXv3Nr3jz1Lt0a1ANQmaLBVUhhUcwAU0jk4uTvH3sAK+9/AyvPfdLPjr4KnF+GmKPvvN00xsz/f8X8h8dP8QzLz3NC2f288a5Nzly/hjH6ovY7RPUbUo0xcImIuQCed1g1w6ycIvhHT3NW/Pv8uaHB3jh+V/xzpuv0u3NE+iTc1nh+SK4IfKfUlD0i8tIqgqq9PsZR956lWk/zehj22l8/1aGfnAHtSfvZOzR3dQqVWwpZoDQt0J3qEJt9wZGvrOb2pO30vjBt5jYdyvtWsb+Q68wNzsN/YyK/2J9WcINkf+yUCDGwFy7Q5rWqK5dSXfrOP0t42SbVxAnhsEZLFrMezVEsfTThHzFAH7TONnWFcRNo1TXjWMH60y3F5iZmyd0PZX+jc36fxTyqkv/QZKkrFi9ES5kzL83SaIJSW5wnsLFRcoMI7hgcMFioiNiycXiMqHZS5j7YJL22TlWjq8mYslyMPHG6NzY3Z+D5ZxOAC0rMmstu/c8xObWOiZfeAdOTHHLAox0hSRAbsAbRaRY2la9oeYtNe+oesvKdkrtxAznXzrGqK+xa/MukrSGJgnBJNc++rq4DnmLkhCiECKEuEStSOC1DCoeMlvUZkmETlLswqYeUl+Uq5kUFu2mBrB4DBND29j36I9YsVhh+tev0JmfoZNEjHF4AW9zMpvTc4G+i+QSMNFTzXJuOT1J58W3idMVNu14lIHxDdQbTZJahV5S1A+IQVUx5S7ykjx2LZYnHwM29jDax2qGEY+qRwQisZCwy0JGpKgArRZFjysVh6XqMA3gopBEwUUhS1Nu2baNJx77HpyZ59Rzr9Oc6yM+x6dFvq7kUPWKSiRLwQo0Z7ucPniMmbNz7Ni6i4k162m1mrTqKan0cKZXGEdLLVCLRdZykWBZ8gl9TD5DPn+WxZmP8f0ZjGaoekBL9yzJlw3ZWEjPghJM8blTqITCSxJf3Jcnjm4lZfuuPTx573fh7UlmXjhCox2IsShaXLmTowREc2odT+/wh1w4foGJie2sW7eV4YEBBhuGVBdZvPAh0p3EaCDkWanuLqkLxatrPWBZ8hK7vH3oJf72v/w1P/uPf8kv/u6/MjN1Fu+75RK0NLlcFjtzq/Sd0k8gcxQDUCouptjNJgqkxhIwaHOAB/f9gHs272X6wEk6h08y1iv29DsJLFQLHXG0rei7nzB98CRjrdVs3raHkbHVDAy26CxO8fP/9jP+5md/xX/+T3/Fh+8fw4piZCktF7b/LA9YlvyFC2d5+/ABBhspt+7YxKk/nuDdI2/S67YJIUCgqKUjgOLxZC7SsYG+jcX0EMiNkjmhb4sNiNwKlX5OVSx9k9CpNnnkyR+xZnQtF156h/TIGZJuoJvAQhqpZ8rA+zO0Xz5JPTTZtn03I6OrqdYa1Oo1Xvr971iYu8AT334In3X5+//zSzrzs/h+v6hLlghpvDQdlrAs+cVOh3a3y5133ck//eEPadVrTF08T3thkSzLMBjAkKoh8UrNQ6Wv1D00+kq9qyS5ghTbUdEKaovHafRYBasOdXXsyEq+9+SPGfUNJn/3FpUzCwx2IyPdSOPjeeZePk4y5dmy425G12yk1mpRH2ghFmYXZlm/bj1//qOfsG3LTtpz08zPz9LtdYvAd4W9v7DlVRweh2IRYzFiUa/0ezlEyFAQQ6KWajdSne4wNJMxcrHL4FSP2nSXZLFPErSYf0awqqQBOtVAtEotF6qZQ2yNsTUbeXzf97GLnnMvHmb8g3nWnlwkP3CS7kfTrF2zkxXrdlBrDtFs1UkqFnFFCs2joLZK0CpGIz7r4/NC27+S/LX4FPmlElZUCoWlrLEhohohWlQj0QTUGVbeMoFbUM7tP8rCK0eZf/ldFg4cZ/r1E0yd+ITEVKjX6jhVjCouQN8oXhQXDJVoSSTFpnU27Lide+5+FHd2kU9+e5CpZ99m4eg5JlZvYs32nTSGR2kNNKnWKlhjAA/kOJugmqBiQCPB50SNxLKkpnT/a+uQT5FfQqqBVBcRk6GSYsTjNCDeobZPNWaoS9l+5yNsHb+D9J0e1QMXkTcuEt64gDk8R3OxycTWXQyP3ULFaCF3OUMjS7HR0E093TQj4rFaIa2uZPsd3+b+7Q/Q6g7hp+uMT9zGql13UV+5gsFGjVZNSE2C0wSnfazpXKbl2ljNQQxBHIihCK0RFUsUdxXHZclDmTKlbFvLN2owajE6iIZBVq28jSe+9xc88d1/xcP7fsL9j/yE+x/9Z9z7yPe47+HvsmPX3QyPrqRSa4EtHm61UHqXrkQjiUYqBkYHh7jnke/wnSd/zKOPf5+77n6IlavW0RgYplZvYZMqapOCDFLqvUs0rrXt9bEs+aI+WmpOgPKAkFpQQ9Q+KhmSKo3RIVZt2siaLdtYu3U7a7bsZM2WXdyyfjtDK9bQGByjUm1iXYqILURIXdqaKh8SSylMHLY+yuiqzaxav43RlasZHF5BszlIpVoDmxKNI4ollkrTzeI65MsBUEEvmf9Sase4NtgOarvYqidpCrXhGo2RJo2hQRpD4zSHx2kMDFOtN3BJSlF3aHkszV26gliCSQjGlT8r2GqNamOQRmuIerNJklauUWxLBbf87Nql9bXvPwvXJR8vC+rlflqGSIaRPiY4DClQAaoYqWFNnUTqJLZK4iyJFZwFZ8FIjmiOaEYklhsilzdGoigBLXQ7E3BWSRJIHFijWAkYPFYzbMwxBFCP4XIxs8S3CNpX0flMLEtexCEmIURFnIAEvO8QYwelAzlorqgvLomC9YLzkARPEru42MXGLiZ2MdpFysto+dlnXDZ0sX4R4xcxvoMJnfK7PST2kNDF5B1s6BF6HXzWwzmDsZYs94AQY8RccU5vOXzqHN7SF+bOfMCvf/k3bNq2hSce+yf8j7/9a6YvtvnWHY8zvnGQVjKIGinEzbJ4tFFwcSlQFjU1aKnIl48RxcTL53WXw9KSRCkkLSjaNeQYX0OC49zkYZ773f/iwfu+yw//7Kf823/3b+jPC4/92U8ZmthIc2CI1CiGSCwPQl41cZYjny9M8uxv/jsLC7P8y3/xF1w8f5Znfvs7FruWSqtOJblQdO6K1pbq+KLTl9PKVWVmQedzyF99RxltitdqEaoQLe32NMNDDX785/8cBf79f/hLVq95gHsfeoThW1ZRb7ZwzhQGkGIwr3T1T5G/hHyBN197kdf2/57bd23l8X2PcvHiFKc+mWSxk5Feyfpaba+02teBKBliFVWh1WqxccMmqtWUp/7n3/H+iRM8uO9fM7FmNaPjY1RrNUziys3WYhS/EHkJOe25af7wwjOcPHmYbVtWs3fv7QwPD2OsIQnjl+690q4FYnmqo4Bqocx8NYiFnE2gm/W5MDXF/v2HOHr0A+7cfQ/rtt3HyMgIg0NDpGmKOEuphUJxWuYSlicfBQ2B6amPeePQixx/9yCJ9dSrKdaW+1hL+FRgKY9Ul7j2t18GLrZQbwnSx4eM+U4PjXV27NjL6tXbaI2NMjQ8TK1axSYOjLm8C/xFyaNF1NTQo92e4ZPTH3Hq5Psszs2T9/qEK/eGynOwV373Zk39eRHaxgQhEqSPTQ2N1girJjbTqK+h0RhhYNRSq9dJkgRM0Y8yDN0I+XJhAIQQyLp9+u0e/XaXmAVyza+6/WrywBUB70bweeQVj5gclYAaxdgK1lZJk2GajQHSRo5LkqIPUvTr2mh06fWy5ImXioeAoFHBewhKzHK8vXp35NN2XraEuC6W6cwlxHIXuzQkIoK1FmMtzjlAMdYWVhbgmvR2JZYlLwoalVgeTxGh2BREIUa81q++/6onLB1ju3F8nuWjFNWbmOJPUEBBPdbE8g8gmp8a9hsm/03AtYP0jcKfyH9T8Sfy31T8ifw3Ff8Pa/gLDQYdzNQAAAAASUVORK5CYII=;clipPath=inset(0% 8.73% 12.3% 0%);" vertex="1" parent="1">
          <mxGeometry x="-856" y="-43.620000000000005" width="63" height="58.61739130434783" as="geometry" />
        </mxCell>
      </root>
    </mxGraphModel>
  </diagram>
</mxfile>
